<mxfile host="app.diagrams.net" modified="2023-09-08T09:52:14.022Z" agent="Mozilla/5.0 (Macintosh; Intel Mac OS X 10_15_7) AppleWebKit/537.36 (KHTML, like Gecko) Chrome/116.0.0.0 Safari/537.36" etag="KI_WUUN_kF8Jg3uqJkM8" version="21.6.6" type="github">
  <diagram name="Page-1" id="_TuhnqFObatl6kYG6SpY">
    <mxGraphModel dx="759" dy="617" grid="1" gridSize="10" guides="1" tooltips="1" connect="1" arrows="1" fold="1" page="1" pageScale="1" pageWidth="827" pageHeight="1169" math="0" shadow="0">
      <root>
        <mxCell id="0" />
        <mxCell id="1" parent="0" />
        <mxCell id="Wjas77HNBY0APLVZOWqF-1" value="Monitored&lt;br&gt;resource" style="ellipse;shape=cloud;whiteSpace=wrap;html=1;" vertex="1" parent="1">
          <mxGeometry x="100" y="140" width="120" height="80" as="geometry" />
        </mxCell>
      </root>
    </mxGraphModel>
  </diagram>
</mxfile>
